Patient4_TMGait_0pt4_02_right_41_EMG.mot
version=1
nRows=16
nColumns=33
inDegrees=no
endheader
time	1LAddLong	2LGlutMax	3LGlutMed	4LIliopsoas	5LSemiMemb	6LBicFemLong	7LRecFem	8LVastMed	9LVastLat	10LGasMed	11LTibAnt	12lTibPost	13LPeroneusLong	14LSol	15LExtDigLong	16LFlexDigLong	17RAddLong	18RGlutMax	19RGlutMed	20RIliopsoas	21RSemiMemb	22RBicFemLong	23RRecFem	24RVastMed	25RVastLat	26RGasMed	27RTibAnt	28RTibPost	29RPeroneusLong	30RSol	31RExtDigLong	32RFlexDigLong
54.96	-0.051575	0.37613	0.026703	0.00885	-0.14984	-0.068512	-0.029449	0.009918	-0.071411	-0.03952	-0.009003	-0.016022	-0.022583	0.26367	0.09491	0.018311	-0.014801	-0.28488	1.1678	0.30502	0.064087	0.058289	-0.50613	-0.019836	0.013428	0.024261	0.095978	-0.002136	-0.28153	-0.31876	-0.002136	-0.026855
54.961	-0.046539	0.38727	0.063629	0.000305	-0.16113	-0.17975	-0.092163	-0.005341	-0.034027	-0.073242	-0.020905	-0.013885	0.16296	0.26489	0.029449	0.010681	-0.032959	-0.36087	-0.12085	0.15839	0.094452	-0.011444	-0.54962	-0.016327	0.021057	0.029602	0.064697	-0.003967	-0.5072	-0.35812	-0.002289	-0.016632
54.962	-0.04837	0.44205	0.071716	-0.011292	-0.095367	-0.24551	-0.092316	-0.008698	0.000763	-0.054626	-0.021515	-0.023956	0.17731	0.22903	0.009918	0.016632	-0.035095	-0.34973	-0.67612	0.026703	0.085144	-0.046692	-0.5336	-0.00061	0.033875	0.041046	0.022888	-0.004883	-0.71274	-0.23468	-0.003662	-0.015564
54.963	-0.028687	0.4422	0.052948	0.001678	-0.000305	-0.21271	-0.11246	-0.008545	0.01709	0.011139	0.006104	-0.031891	0.41718	0.0737	-0.064545	-0.001984	-0.054321	-0.33493	-0.42572	-0.00351	-0.040894	0.037231	-0.49896	0.039215	0.021057	0.032501	0.035553	-0.002747	-0.65704	-0.13687	-0.002747	-0.019989
54.964	-0.003204	0.43167	0.033875	0.003967	0.013275	-0.16968	-0.22186	-0.018768	0.004578	0.016022	0.001221	-0.029755	0.23148	0.004425	-0.11475	-0.002289	-0.053253	-0.35568	0.11551	-0.024109	-0.14496	0.069885	-0.46112	0.01358	0.03891	0.009766	0.065765	0.000305	-0.33188	0.045471	-0.001068	-0.018768
54.965	0.02533	0.40649	-0.002441	0.012054	-0.083618	-0.062103	-0.31479	-0.002289	-0.014801	-0.018768	-0.016785	-0.046234	-0.16861	-0.10498	-0.040588	-0.019379	-0.062256	-0.3302	0.79041	-0.005493	-0.085449	0.087738	-0.44601	0.054169	0.0383	-0.014191	0.062561	0.002441	-0.25162	0.11688	-0.002441	-0.01709
54.966	0.039368	0.40756	0.032959	0.014191	0.086365	0.04776	-0.30533	0.008545	0.005188	-0.031128	0.006714	-0.049286	-0.46906	-0.069427	0.016632	-0.03006	-0.077667	-0.26611	0.13443	0.046082	-0.078888	0.078125	-0.40604	0.018158	0.032501	-0.005951	0.06012	-0.001068	-0.18951	-0.14801	-0.00061	-0.023499
54.967	0.038605	0.39856	0.15396	0.016937	0.11047	0.21378	-0.15213	0.006561	0.098877	-0.050812	0.013885	-0.053558	-0.48691	-0.063934	0.000305	-0.03479	-0.058289	-0.26764	-0.32989	0.031433	0.007019	0.036011	-0.41534	0.000763	0.017395	0.001526	0.062408	0.007935	-0.32181	-0.43335	-0.000916	-0.020142
54.968	0.052948	0.34393	-0.040588	0.01358	0.075989	0.14679	-0.10391	-0.018005	0.091095	-0.05249	0.016174	0.011597	-0.090179	-0.061951	-0.035248	-0.005341	-0.035095	-0.25223	-0.29984	-0.039673	-0.047913	0.0177	-0.43243	-0.001221	0.020294	-0.01358	0.034485	0.020142	-0.015869	-0.61676	-0.001831	-0.015106
54.969	0.052032	0.31067	-0.15243	0.007172	0.063782	0.12375	-0.090179	-0.010376	-0.12131	-0.092468	0.002441	-0.036774	0.067749	0.031433	0.00885	-0.021667	-0.00946	-0.26642	0.2504	-0.083923	0.04364	0.014954	-0.44708	-0.017242	0.02655	-0.044708	-0.027466	0.015717	0.39337	-0.33615	0.000153	-0.023041
54.97	0.031128	0.27359	-0.078583	0.00412	0.026245	0.10269	-0.084076	0.002747	-0.19318	-0.10986	-0.019684	-0.15945	0.23911	0.15717	0.000153	-0.033569	0.034027	-0.34409	-0.082397	-0.12192	0.11429	0.019226	-0.44617	-0.006866	0.026245	-0.056152	-0.026245	-0.061951	0.38773	0.28885	-0.001831	-0.021973
54.971	0.032196	0.2803	-0.084229	0	0.070953	0.07843	-0.17914	-0.003052	-0.071716	-0.10559	0.012512	-0.096436	-0.33737	0.31998	-0.00824	-0.043793	0.057983	-0.3244	-0.015411	-0.13763	0.10071	-0.012665	-0.45044	-0.079651	0.034485	-0.065308	-0.056763	-0.14389	0.51804	1.2085	-0.000458	-0.023804
54.972	0.020599	0.27985	-0.13062	0.002594	0.076141	0.11246	-0.11002	-0.00824	0.12207	-0.10284	0.034637	-0.11139	0.029755	0.46371	-0.05127	-0.055695	0.075684	-0.38544	-0.055695	-0.096588	0.02594	-0.032654	-0.45395	-0.04715	0.025635	-0.045013	-0.049896	-0.20737	0.68878	1.5334	-0.000305	-0.025177
54.973	0.008545	0.20767	-0.20309	0.013123	0.055389	0.14496	-0.022888	-0.00473	0.10757	-0.10529	0.017242	-0.1416	0.19516	0.44479	-0.15198	-0.085602	0.077972	-0.38498	-0.080414	-0.019684	0.019989	0.00946	-0.45502	-0.069733	0.008545	-0.021667	-0.034637	0.015869	0.40573	0.98602	-0.00473	-0.014801
54.974	0.007477	0.2269	-0.28076	0.007935	0.040131	0.11566	0.007629	0.005646	-0.063629	-0.077209	0.004578	-0.1593	0.50888	0.38238	-0.1413	-0.11078	0.084534	-0.34042	0.009003	0.097046	-0.022583	0.001221	-0.43457	-0.054626	0.020599	-0.015259	-0.058594	-0.015869	0.079803	0.47119	-0.001831	-0.018005
54.975	-0.033875	0.23331	-0.2298	0.000763	0.028992	0.093994	-0.089417	0.009918	-0.25635	-0.082092	-0.012665	-0.13763	0.058746	0.17654	-0.15182	-0.11993	0.08728	-0.35538	0.081177	0.064697	-0.056152	-0.019379	-0.42633	-0.013428	0.013428	-0.003204	-0.014954	0.22568	-0.021667	0.29098	-0.005646	-0.024261
